/* XPM */
static char * wall_xpm[] = {
"32 32 7 1",
" 	c #000000",
".	c #FFFFFF",
"+	c #FEFEFE",
"@	c #FAFAFA",
"#	c #FBFBFB",
"$	c #FCFCFC",
"%	c #FDFDFD",
"                                ",
" .............................. ",
" .............................. ",
" .............................. ",
" .............................. ",
" .............................. ",
" .................+............ ",
" .............................. ",
" .......   .........   ........ ",
" .......   .........   ........ ",
" .......   .........   ........ ",
" .......   .........   ........ ",
" .......   .........   ........ ",
" .......   .........   ........ ",
" .......   .........   ........ ",
" .......   .........   ........ ",
" .......   .........   ........ ",
" .......   ...   ...   ........ ",
" .......   ...   ...   ........ ",
" .......    .     .    ....+... ",
" .........     .     .......... ",
" ..........   ...   ......@.... ",
" ..........   ...   .....#..... ",
" .............................. ",
" .............................. ",
" .............................. ",
" .............................. ",
" ..................+$.......... ",
" .............................. ",
" .............................. ",
" ..............$%+............. ",
"                                "};
