/* XPM */
static char *_929f25c6f884233dfbad13054e4e021yyzrd53hZXpTmtDM[] = {
/* columns rows colors chars-per-pixel */
"32 32 4 1 ",
"  c #398003",
". c #A8E61D",
"X c #709AD1",
"o c #D3F9BC",
/* pixels */
"XXXXXXXXXXXXXXXXXXXXXXXXXXXXXXXX",
"XXXXXXXXXXXXXXXXXXXXXXXXXXXXXXXX",
"XXXXXXXXXXXXXXXXXXXXXXXXXXXXXXXX",
"XXXXXXXXXXXXXXXXXXXXXXXXXXXXXXXX",
"XXXXXXXXXXXXXXXXXXXXXXXXXXXXXXXX",
"XXXXXXXXXXXXXXXXXXXXXXXXXXXXXXXX",
"XXXXXXXXXXXXXXXXXXXXXXXXXXXXXXXX",
"XXXXXXXXXXXXXXXXXXXXXXXXXXXXXXXX",
"XXXXXXXXXXXXXXXXXXXXXXXXXXXXXXXX",
"XXXXXXXXXXXXXXXXXXXXXXXXXXXXXXXX",
"XXXXXX                   XXXXXXX",
"XXXXXX oo ........... oo XXXXXXX",
"XXXXXX o .ooooooooooo. o XXXXXXX",
"XXXXXX  .o oo  ooo  oo.  XXXXXXX",
"XXXXXX .oo o oo o oo oo. XXXXXXX",
"XXXXXX .oo o oo o oo oo. XXXXXXX",
"XXXXXX .oo o oo o oo oo. XXXXXXX",
"XXXXXX  .o oo  ooo  oo.  XXXXXXX",
"XXXXXX o .ooooooooooo. o XXXXXXX",
"XXXXXX oo ........... oo XXXXXXX",
"XXXXXX                   XXXXXXX",
"XXXXXXXXXXXXXXXXXXXXXXXXXXXXXXXX",
"XXXXXXXXXXXXXXXXXXXXXXXXXXXXXXXX",
"XXXXXXXXXXXXXXXXXXXXXXXXXXXXXXXX",
"XXXXXXXXXXXXXXXXXXXXXXXXXXXXXXXX",
"XXXXXXXXXXXXXXXXXXXXXXXXXXXXXXXX",
"XXXXXXXXXXXXXXXXXXXXXXXXXXXXXXXX",
"XXXXXXXXXXXXXXXXXXXXXXXXXXXXXXXX",
"XXXXXXXXXXXXXXXXXXXXXXXXXXXXXXXX",
"XXXXXXXXXXXXXXXXXXXXXXXXXXXXXXXX",
"XXXXXXXXXXXXXXXXXXXXXXXXXXXXXXXX",
"XXXXXXXXXXXXXXXXXXXXXXXXXXXXXXXX"
};
