/* XPM */
static char * empty_xpm[] = {
"32 32 4 1",
" 	c #000000",
".	c #FFFFFF",
"+	c #F7F7F7",
"@	c #FDFDFD",
"                                ",
" .............................. ",
" .............................. ",
" .............................. ",
" .............................. ",
" ..........        ............ ",
" ..........        ............ ",
" .........          ........... ",
" ........            .......... ",
" ......      ....      ........ ",
" ......     ......     ........ ",
" ......    .......     ........ ",
" ......    ......      ........ ",
" ......    ....        ........ ",
" ......    ....        ........ ",
" ......     ..         ........ ",
" ......                ........ ",
" ......                ........ ",
" ......         ..     ........ ",
" ......        ....    ........ ",
" ......        ....    ........ ",
" ......      ...+..    ........ ",
" ......     .......    ........ ",
" ......     @.....     ........ ",
" ......      ....      ........ ",
" ........            .......... ",
" .........          ........... ",
" ..........        ............ ",
" ..........        ............ ",
" .............................. ",
" .............................. ",
"                                "};
