/* XPM */
static char *a323aeefa8b84f9294848a785e4e08f1GFeCfkDdQDOUxl6e[] = {
/* columns rows colors chars-per-pixel */
"32 32 7 1 ",
"  c black",
". c #1F1E1F",
"X c gray14",
"o c #2E2D2E",
"O c #FFC20E",
"+ c #709AD1",
"@ c #B4B4B4",
/* pixels */
"++++++++++++++++++++++++++++++++",
"++++++++++++++++++++++++++++++++",
"++++++++++++++++++++++++++++++++",
"++++++++++++++++++++++++++++++++",
"++++++++++++++++++++++++++++++++",
"+++++++++++++      +++++++++++++",
"++++++++++++ oooooo ++++++++++++",
"+++++++++++ oo    oo +++++++++++",
"+++++++++++ o ++++ o +++++++++++",
"+++++++++++ o ++++ o +++++++++++",
"+++++++++++ o ++++ o +++++++++++",
"+++++                      +++++",
"++++ @@@@@.@.@@@@@@.@.@@@@@ ++++",
"++++ ooooo.o.oooooo.o.ooooo ++++",
"++++ ooooo.o.oooooo.o.ooooo ++++",
"++++ ooooo.o.oooooo.o.ooooo ++++",
"++++ ooooo.o.oooooo.o.ooooo ++++",
"++++ ooooo.o.oooooo.o.ooooo ++++",
"++++ ooooo.o.oooooo.o.ooooo ++++",
"++++ ooooo.o.oooooo.o.ooooo ++++",
"++++ ooooo.o.oooooo.o.ooooo ++++",
"++++ ...oOOOOOooooOOOOOo... ++++",
"++++ XXX.O...O....O...O.XXX ++++",
"++++ XXXXO.o.OXXXXO.o.OXXXX ++++",
"++++ XXXXXOOOXXXXXXOOOXXXXX ++++",
"++++ XXXXXX.XXXXXXXX.XXXXXX ++++",
"++++ XXXXXXXXXXXXXXXXXXXXXX ++++",
"+++++                      +++++",
"++++++++++++++++++++++++++++++++",
"++++++++++++++++++++++++++++++++",
"++++++++++++++++++++++++++++++++",
"++++++++++++++++++++++++++++++++"
};
