/* XPM */
static char *result[] = {
/* columns rows colors chars-per-pixel */
"32 32 6 1 ",
"  c black",
". c #22B14C",
"X c #A8E61D",
"o c #E5AA7A",
"O c #709AD1",
"+ c #B4B4B4",
/* pixels */
"OOOOOOOOOOOOOOOOOOOOOOOOOOOOOOOO",
"OOOOOOOOOOOOOOOOOOOOOOOOOOOOOOOO",
"OOO OOOOOOOOOOOOOOOOOO+++O.....O",
"OOO OOO++OOOOOOOOOOOOO+++O.XXX.O",
"O     O++OOOOOOOOOOOOO+++O.XXX.O",
"OOO OOO++OOOOoooooOOOO+++O.X.X.O",
"OOO OOO++Ooo ooooo ooO+++O.XXX.O",
"OOOOOOO++ooooooooooooo+++O.XXX.O",
"OOOOOOO+ooooooooooooooo++O.....O",
"OOOOOOOooooooo     ooooo+OOOOOOO",
"OOOOOOO                  OOOOOOO",
"OOOOOO                   OOOOOOO",
"OOOOO                     OOOOOO",
"OOOOO                     OOOOOO",
"OOOOO                     OOOOOO",
"OOOOO                     OOOOOO",
"OOOOO                     OOOOOO",
"OOOOO                     OOOOOO",
"OOOOO                     OOOOOO",
"OOOOO                     OOOOOO",
"OOOOO                     OOOOOO",
"OOOOO                     OOOOOO",
"OOOOO                     OOOOOO",
"OOOOO                     OOOOOO",
"OOOOOO                    OOOOOO",
"OOOOOOO                   OOOOOO",
"OOOOOOOO                  OOOOOO",
"OOOOOOOOO                 OOOOOO",
"OOOOOOOOO               OOOOOOOO",
"OOOOOOOOOOOOOOOOOOOOOOOOOOOOOOOO",
"OOOOOOOOOOOOOOOOOOOOOOOOOOOOOOOO",
"OOOOOOOOOOOOOOOOOOOOOOOOOOOOOOOO"
};
