/* XPM */
static char *_ad4a5d1303c43249093dab7cb48b6c9OIC7CHT0teGDD2Ig[] = {
/* columns rows colors chars-per-pixel */
"32 32 4 1 ",
"  c black",
". c #E5AA7A",
"X c #709AD1",
"o c #B4B4B4",
/* pixels */
"XXXXXXXXXXXXXXXXXXXXXXXXXXXXXXXX",
"XXXXXXXXXXXXXXXXXXXXXXXXXXXXXXXX",
"XXXXXXXX               XXXXXXXXX",
"XXXXXX                 XXXXXXXXX",
"XXXXXX                  XXXXXXXX",
"XXXXXX                   XXXXXXX",
"XXXXXX                    XXXXXX",
"XXXXXX                     XXXXX",
"XXXXX                      XXXXX",
"XXXXX                      XXXXX",
"XXXXX                      XXXXX",
"XXXXX                      XXXXX",
"XXXXX                      XXXXX",
"XXXXX                      XXXXX",
"XXXXX                      XXXXX",
"XXXXX                      XXXXX",
"XXXXXX                     XXXXX",
"XXXXXX                     XXXXX",
"XXXXXX                     XXXXX",
"XXXXXXX                   XXXXXX",
"XXXXXXX                  XXXXXXX",
"XXXXXXXo.....     .......XXXXXXX",
"XXXXXXXoo...............oXXXXXXX",
"XXXXXXXooo.............ooXXXXXXX",
"XXXXXXXoooX.. ..... ..XooXXXXXXX",
"XXXXXXXoooXXXX.....XXXXooXXXXXXX",
"XXXXXXXoooXXXXXXXXXXXXXooXXXXXXX",
"XXXXXXXoooXXXXXXXXXXXXXooXXXXXXX",
"XXXXXXXoooXXXXXXXXXXXXXXXXXXXXXX",
"XXXXXXXXXXXXXXXXXXXXXXXXXXXXXXXX",
"XXXXXXXXXXXXXXXXXXXXXXXXXXXXXXXX",
"XXXXXXXXXXXXXXXXXXXXXXXXXXXXXXXX"
};
