/* XPM */
static char *result[] = {
/* columns rows colors chars-per-pixel */
"32 32 4 1 ",
"  c black",
". c #E5AA7A",
"X c #709AD1",
"o c #B4B4B4",
/* pixels */
"XXXXXXXXXXXXXXXXXXXXXXXXXXXXXXXX",
"XXXXXXXXXXXXXXXXXXXXXXXXXXXXXXXX",
"XXXXXXXXXXXXXXXXXXXXXXoooXXXXXXX",
"XXXXXXXooXXXXXXXXXXXXXoooXXXXXXX",
"XXXXXXXooXXXXXXXXXXXXXoooXXXXXXX",
"XXXXXXXooXXXX.....XXXXoooXXXXXXX",
"XXXXXXXooX.. ..... ..XoooXXXXXXX",
"XXXXXXXoo.............oooXXXXXXX",
"XXXXXXXo...............ooXXXXXXX",
"XXXXXXX.......     .....oXXXXXXX",
"XXXXXXX                  XXXXXXX",
"XXXXXX                   XXXXXXX",
"XXXXX                     XXXXXX",
"XXXXX                     XXXXXX",
"XXXXX                     XXXXXX",
"XXXXX                     XXXXXX",
"XXXXX                     XXXXXX",
"XXXXX                     XXXXXX",
"XXXXX                     XXXXXX",
"XXXXX                     XXXXXX",
"XXXXX                     XXXXXX",
"XXXXX                     XXXXXX",
"XXXXX                     XXXXXX",
"XXXXX                     XXXXXX",
"XXXXXX                    XXXXXX",
"XXXXXXX                   XXXXXX",
"XXXXXXXX                  XXXXXX",
"XXXXXXXXX                 XXXXXX",
"XXXXXXXXX               XXXXXXXX",
"XXXXXXXXXXXXXXXXXXXXXXXXXXXXXXXX",
"XXXXXXXXXXXXXXXXXXXXXXXXXXXXXXXX",
"XXXXXXXXXXXXXXXXXXXXXXXXXXXXXXXX"
};
