/* XPM */
static char *pixil_frame_0_4_1691533817[] = {
/* columns rows colors chars-per-pixel */
"32 32 4 1 ",
"  c black",
". c #E5AA7A",
"X c #709AD1",
"o c #B4B4B4",
/* pixels */
"XXXXXXXXXXXXXXXXXXXXXXXXXXXXXXXX",
"XXXXXXXXXXXXXXXXXXXXXXXXXXXXXXXX",
"XXXXXXXXXXXXXXXXXXXXXXXXXXXXXXXX",
"XXXXXXXXXXXXXXXXXXXXXXXXXXXXXXXX",
"XXXXXXXX            XXXXXXXXXXXX",
"XXXXXXX              ooooooooXXX",
"XXXXXX                .ooooooXXX",
"XXXXX                 ..oooooXXX",
"XXX                   ...XXXXXXX",
"XXX                   ....XXXXXX",
"XXX                   ....XXXXXX",
"XXX                   ... XXXXXX",
"XXX                   .....XXXXX",
"XXX                    ....XXXXX",
"XXX                    ....XXXXX",
"XXX                    ....XXXXX",
"XXX                    ....XXXXX",
"XXX                    .. XXXXXX",
"XXX                   ....XXXXXX",
"XXX                   ....XXXXXX",
"XXX                   ...XXXXXXX",
"XXX                   ..ooooooXX",
"XXX                   .oooooooXX",
"XXXX                  ooooooooXX",
"XXXX                XXXXXXXXXXXX",
"XXXXXXXXX        XXXXXXXXXXXXXXX",
"XXXXXXXXXXXXXXXXXXXXXXXXXXXXXXXX",
"XXXXXXXXXXXXXXXXXXXXXXXXXXXXXXXX",
"XXXXXXXXXXXXXXXXXXXXXXXXXXXXXXXX",
"XXXXXXXXXXXXXXXXXXXXXXXXXXXXXXXX",
"XXXXXXXXXXXXXXXXXXXXXXXXXXXXXXXX",
"XXXXXXXXXXXXXXXXXXXXXXXXXXXXXXXX"
};
