/* XPM */
static char *result[] = {
/* columns rows colors chars-per-pixel */
"32 32 4 1 ",
"  c black",
". c #E5AA7A",
"X c #709AD1",
"o c #B4B4B4",
/* pixels */
"XXXXXXXXXXXXXXXXXXXXXXXXXXXXXXXX",
"XXXXXXXXXXXXXXXXXXXXXXXXXXXXXXXX",
"XXXXXXXXXXXXXXXXXXXXXXXXXXXXXXXX",
"XXXXXXXXXXXXXXXXXXXXXXXXXXXXXXXX",
"XXXXXXXXXXXXXXX        XXXXXXXXX",
"XXXXXXXXXXXX                XXXX",
"XXoooooooo                  XXXX",
"XXooooooo.                   XXX",
"XXoooooo..                   XXX",
"XXXXXXX...                   XXX",
"XXXXXX....                   XXX",
"XXXXXX....                   XXX",
"XXXXXX ..                    XXX",
"XXXXX....                    XXX",
"XXXXX....                    XXX",
"XXXXX....                    XXX",
"XXXXX....                    XXX",
"XXXXX.....                   XXX",
"XXXXXX ...                   XXX",
"XXXXXX....                   XXX",
"XXXXXX....                   XXX",
"XXXXXXX...                   XXX",
"XXXooooo..                 XXXXX",
"XXXoooooo.                XXXXXX",
"XXXXXXXXXXX              XXXXXXX",
"XXXXXXXXXXXX            XXXXXXXX",
"XXXXXXXXXXXXXXXXXXXXXXXXXXXXXXXX",
"XXXXXXXXXXXXXXXXXXXXXXXXXXXXXXXX",
"XXXXXXXXXXXXXXXXXXXXXXXXXXXXXXXX",
"XXXXXXXXXXXXXXXXXXXXXXXXXXXXXXXX",
"XXXXXXXXXXXXXXXXXXXXXXXXXXXXXXXX",
"XXXXXXXXXXXXXXXXXXXXXXXXXXXXXXXX"
};
