/* XPM */
static char *_df36c963de64146cc9574115e390c4cpe5Y885iDEF3VZl7[] = {
/* columns rows colors chars-per-pixel */
"32 32 3 1 ",
"  c black",
". c #2F3699",
"X c #709AD1",
/* pixels */
"                                ",
" .............................. ",
" . .XXXXXXXXXXXXXXXXXXXXXXXX. . ",
" ....XXXXXXXXXXXXXXXXXXXXXX.... ",
" .X...XXXXXXXXXXXXXXXXXXXX...X. ",
" .XX...XXXXXXXXXXXXXXXXXX...XX. ",
" .XXX...XXXXXXXXXXXXXXXX...XXX. ",
" .XXXX...XXXXXXXXXXXXXX...XXXX. ",
" .XXXXX...XXXXXXXXXXXX...XXXXX. ",
" .XXXXXX...XXXXXXXXXX...XXXXXX. ",
" .XXXXXXX...XXXXXXXX...XXXXXXX. ",
" .XXXXXXXX...XXXXXX...XXXXXXXX. ",
" .XXXXXXXXX...XXXX...XXXXXXXXX. ",
" .XXXXXXXXXX...XX...XXXXXXXXXX. ",
" .XXXXXXXXXXX......XXXXXXXXXXX. ",
" .XXXXXXXXXXXX.  .XXXXXXXXXXXX. ",
" .XXXXXXXXXXXX.  .XXXXXXXXXXXX. ",
" .XXXXXXXXXXX......XXXXXXXXXXX. ",
" .XXXXXXXXXX...XX...XXXXXXXXXX. ",
" .XXXXXXXXX...XXXX...XXXXXXXXX. ",
" .XXXXXXXX...XXXXXX...XXXXXXXX. ",
" .XXXXXXX...XXXXXXXX...XXXXXXX. ",
" .XXXXXX...XXXXXXXXXX...XXXXXX. ",
" .XXXXX...XXXXXXXXXXXX...XXXXX. ",
" .XXXX...XXXXXXXXXXXXXX...XXXX. ",
" .XXX..XXXXXXXXXXXXXXXXX...XXX. ",
" .XX..XXXXXXXXXXXXXXXXXXX...XX. ",
" .X..XXXXXXXXXXXXXXXXXXXXX...X. ",
" ....XXXXXXXXXXXXXXXXXXXXXX.... ",
" . .XXXXXXXXXXXXXXXXXXXXXXXX. . ",
" .............................. ",
"                                "
};
